<svg width="36" height="36" viewBox="0 0 36 36" fill="none" xmlns="http://www.w3.org/2000/svg">
  <path d="M18 34.018C27.3888 34.018 35 26.4068 35 17.018C35 7.62916 27.3888 0.0180054 18 0.0180054C8.61116 0.0180054 1 7.62916 1 17.018C1 26.4068 8.61116 34.018 18 34.018Z" fill="#FFCB4C"/>
  <path d="M14.524 21.036C14.379 20.92 14.266 20.762 14.212 20.572C14.078 20.112 14.342 19.654 14.802 19.551C19.33 18.53 22.379 20.914 22.508 21.016C22.892 21.322 22.967 21.861 22.681 22.221C22.395 22.579 21.853 22.622 21.47 22.318C21.36 22.234 18.947 20.395 15.288 21.22C15.014 21.281 14.734 21.204 14.524 21.036Z" fill="#65471B"/>
  <path d="M13.119 13.83C14.2926 13.83 15.244 12.6409 15.244 11.174C15.244 9.70714 14.2926 8.51801 13.119 8.51801C11.9454 8.51801 10.994 9.70714 10.994 11.174C10.994 12.6409 11.9454 13.83 13.119 13.83Z" fill="#65471B"/>
  <path d="M24.375 14.892C25.5486 14.892 26.5 13.7029 26.5 12.236C26.5 10.7691 25.5486 9.58 24.375 9.58C23.2014 9.58 22.25 10.7691 22.25 12.236C22.25 13.7029 23.2014 14.892 24.375 14.892Z" fill="#65471B"/>
  <path d="M17.276 35.149C17.276 35.149 18.541 34.738 18.705 33.797C18.878 32.825 18.081 32.63 18.081 32.63C18.081 32.63 19.122 32.422 19.253 31.254C19.376 30.153 18.392 29.891 18.392 29.891C18.392 29.891 19.362 29.491 19.408 28.352C19.446 27.393 18.413 26.924 18.413 26.924C18.413 26.924 23.451 25.703 23.969 25.583C24.485 25.463 25.289 24.968 25.038 23.889C24.789 22.809 23.834 22.771 23.341 22.886C22.847 23.001 16.597 24.452 14.441 24.954L13.002 25.288C12.462 25.415 12.217 25.178 12.598 24.776C13.106 24.24 13.431 23.647 13.544 22.663C13.663 21.628 13.312 20.35 13.111 19.854C12.737 18.933 12.106 18.205 11.377 17.955C10.24 17.565 9.432 18.276 9.835 19.516C10.439 21.37 10.043 22.891 9.002 23.809C6.553 25.966 5.414 27.504 6.172 30.782C7 34.357 10.549 36.658 14.124 35.83L17.276 35.149Z" fill="#F19020"/>
  <path d="M9.29599 6.351C9.13199 6.263 8.99299 6.127 8.90499 5.952C8.68899 5.524 8.86499 5.025 9.29799 4.84C13.564 3.009 16.997 4.797 17.141 4.874C17.574 5.105 17.749 5.621 17.532 6.028C17.316 6.433 16.792 6.574 16.359 6.346C16.236 6.283 13.527 4.914 10.081 6.393C9.82399 6.502 9.53399 6.478 9.29599 6.351ZM21.431 10.101C21.275 10.003 21.145 9.858 21.069 9.677C20.882 9.235 21.092 8.75 21.537 8.593C25.918 7.057 29.222 9.073 29.36 9.16C29.775 9.42 29.915 9.947 29.672 10.338C29.43 10.728 28.896 10.833 28.481 10.576C28.361 10.504 25.754 8.955 22.214 10.197C21.948 10.288 21.661 10.243 21.431 10.101Z" fill="#65471B"/>
</svg>
